<svg width="68" height="34" viewBox="0 0 68 34" fill="none" xmlns="http://www.w3.org/2000/svg">
<path d="M5.472 23V9.368H0.096V6.2H14.736V9.368H9.36V23H5.472ZM20.4039 12.968H28.4919V15.992H20.4039V12.968ZM20.6919 19.88H29.8359V23H16.8279V6.2H29.5239V9.32H20.6919V19.88ZM40.9695 23.288C39.6735 23.288 38.4655 23.08 37.3455 22.664C36.2415 22.232 35.2815 21.624 34.4655 20.84C33.6495 20.056 33.0095 19.136 32.5455 18.08C32.0975 17.024 31.8735 15.864 31.8735 14.6C31.8735 13.336 32.0975 12.176 32.5455 11.12C33.0095 10.064 33.6495 9.144 34.4655 8.36C35.2975 7.576 36.2655 6.976 37.3695 6.56C38.4735 6.128 39.6815 5.912 40.9935 5.912C42.4495 5.912 43.7615 6.168 44.9295 6.68C46.1135 7.176 47.1055 7.912 47.9055 8.888L45.4095 11.192C44.8335 10.536 44.1935 10.048 43.4895 9.728C42.7855 9.392 42.0175 9.224 41.1855 9.224C40.4015 9.224 39.6815 9.352 39.0255 9.608C38.3695 9.864 37.8015 10.232 37.3215 10.712C36.8415 11.192 36.4655 11.76 36.1935 12.416C35.9375 13.072 35.8095 13.8 35.8095 14.6C35.8095 15.4 35.9375 16.128 36.1935 16.784C36.4655 17.44 36.8415 18.008 37.3215 18.488C37.8015 18.968 38.3695 19.336 39.0255 19.592C39.6815 19.848 40.4015 19.976 41.1855 19.976C42.0175 19.976 42.7855 19.816 43.4895 19.496C44.1935 19.16 44.8335 18.656 45.4095 17.984L47.9055 20.288C47.1055 21.264 46.1135 22.008 44.9295 22.52C43.7615 23.032 42.4415 23.288 40.9695 23.288ZM62.0511 6.2H65.9391V23H62.0511V6.2ZM54.4191 23H50.5311V6.2H54.4191V23ZM62.3391 16.112H54.1311V12.824H62.3391V16.112Z" fill="white"/>
<path d="M0 31H48" stroke="#1F3A93" stroke-width="4"/>
<path d="M54.756 28.8H55.194V33H54.756V28.8ZM52.128 33H51.684V28.8H52.128V33ZM54.798 31.062H52.08V30.672H54.798V31.062ZM56.5649 33V28.8H57.0089V33H56.5649ZM58.3754 33V28.8H59.9474C60.3034 28.8 60.6094 28.858 60.8654 28.974C61.1214 29.086 61.3174 29.25 61.4534 29.466C61.5934 29.678 61.6634 29.936 61.6634 30.24C61.6634 30.536 61.5934 30.792 61.4534 31.008C61.3174 31.22 61.1214 31.384 60.8654 31.5C60.6094 31.612 60.3034 31.668 59.9474 31.668H58.6214L58.8194 31.464V33H58.3754ZM61.2434 33L60.1634 31.476H60.6434L61.7294 33H61.2434ZM58.8194 31.5L58.6214 31.29H59.9354C60.3554 31.29 60.6734 31.198 60.8894 31.014C61.1094 30.83 61.2194 30.572 61.2194 30.24C61.2194 29.904 61.1094 29.644 60.8894 29.46C60.6734 29.276 60.3554 29.184 59.9354 29.184H58.6214L58.8194 28.974V31.5ZM63.1073 30.678H65.3273V31.056H63.1073V30.678ZM63.1553 32.616H65.6813V33H62.7113V28.8H65.5913V29.184H63.1553V32.616Z" fill="white"/>
</svg>
